<?xml version="1.0" encoding="utf-8"?>
<!-- Generator: Adobe Illustrator 19.0.0, SVG Export Plug-In . SVG Version: 6.00 Build 0)  -->
<svg version="1.1" id="Layer_6" xmlns="http://www.w3.org/2000/svg" xmlns:xlink="http://www.w3.org/1999/xlink" x="0px" y="0px"
	 viewBox="-49 229.3 512 345.5" style="enable-background:new -49 229.3 512 345.5;" xml:space="preserve">
<style type="text/css">
	.st0{fill:#F5F5F5;}
	.st1{fill:#FF4B55;}
	.st2{fill:#41479B;}
</style>
<g>
	<path class="st0" d="M113.1,378.8c3.4-1.7,5.3-5.3,4.8-9.1l-3.9-29.3l22.2,6.5c4.9,1.4,10-1.6,11.1-6.6l2.1-9.6l20.8,24.4
		c2.9,3.4,8.4,0.8,7.6-3.6l-8.9-51.7l13.6,3.7c4,1.1,8.2-0.7,10.1-4.4l14.3-26.9v0l0,0l0,0v0l14.3,26.9c1.9,3.6,6.1,5.4,10.1,4.4
		l13.6-3.7l-8.9,51.7c-0.8,4.4,4.7,7,7.6,3.6l20.8-24.4l2.1,9.6c1.1,5,6.2,8,11.1,6.6l22.2-6.5l-3.9,29.3c-0.5,3.7,1.4,7.4,4.8,9.1
		l12,6L291.6,397h56.6h0V229.3h105.9c4.9,0,8.8,4,8.8,8.8V397h0V238.1c0-4.9-4-8.8-8.8-8.8H-40.2c-4.3,0-7.9,3.1-8.7,7.1
		c0.8-4,4.4-7.1,8.7-7.1H65.8V397h0h56.6l-21.3-12.2L113.1,378.8z"/>
	<path class="st1" d="M-40.2,229.3c-4.3,0-7.9,3.1-8.7,7.1c-0.1,0.3-0.1,0.5-0.1,0.8c0,0.3,0,0.6,0,0.9V397H65.8V229.3H-40.2z"/>
	<path class="st1" d="M454.2,229.3H348.2V397H463V238.1C463,233.2,459,229.3,454.2,229.3z"/>
	<path class="st1" d="M312.9,384.8l-12-6c-3.4-1.7-5.3-5.3-4.8-9.1l3.9-29.3l-22.2,6.5c-4.9,1.4-10-1.6-11.1-6.6l-2.1-9.6
		l-20.8,24.4c-2.9,3.4-8.4,0.8-7.6-3.6l8.9-51.7l-13.6,3.7c-4,1.1-8.2-0.7-10.1-4.4L207,272.3v0l0,0l0,0v0l-14.3,26.9
		c-1.9,3.6-6.1,5.4-10.1,4.4l-13.6-3.7l8.9,51.7c0.8,4.4-4.7,7-7.6,3.6l-20.8-24.4l-2.1,9.6c-1.1,5-6.2,8-11.1,6.6l-22.2-6.5
		l3.9,29.3c0.5,3.7-1.4,7.4-4.8,9.1l-12,6l21.3,12.2l0,0h169.3l0,0L312.9,384.8z"/>
	<polygon class="st2" points="463,451.1 322.7,451.1 463,543.1 463,407 463,407 463,433.5 	"/>
	<polygon class="st2" points="-49,451.1 -49,543.1 91.3,451.1 	"/>
	<polygon class="st2" points="-0.7,574.7 162.9,574.7 162.9,467.6 	"/>
	<polygon class="st2" points="251.1,574.7 414.7,574.7 251.1,467.6 	"/>
	<path class="st0" d="M463,451.1v-17.7H233.5v141.2h17.7V467.6l163.5,107.1h39.5h0c0,0,0,0,0,0c0.2,0,0.5,0,0.7,0c0.1,0,0.2,0,0.3,0
		c0.2,0,0.3,0,0.5-0.1c0.1,0,0.2,0,0.3-0.1c0.1,0,0.3-0.1,0.4-0.1c0.1,0,0.2-0.1,0.4-0.1c0.1,0,0.2-0.1,0.4-0.1
		c0.1,0,0.2-0.1,0.4-0.1c0.1,0,0.2-0.1,0.3-0.1c0.1-0.1,0.2-0.1,0.4-0.2c0.1,0,0.2-0.1,0.3-0.1c0.1-0.1,0.2-0.1,0.4-0.2
		c0.1-0.1,0.2-0.1,0.3-0.2c0.1-0.1,0.2-0.2,0.4-0.2c0.1-0.1,0.1-0.1,0.2-0.2c0.1-0.1,0.2-0.2,0.3-0.3c0.1-0.1,0.1-0.1,0.2-0.2
		c0.1-0.1,0.2-0.2,0.3-0.3c0.1-0.1,0.1-0.1,0.2-0.2c0.1-0.1,0.2-0.2,0.3-0.4c0,0,0.1-0.1,0.1-0.1c0.1-0.1,0.2-0.3,0.3-0.4
		c0,0,0-0.1,0.1-0.1c0.1-0.2,0.2-0.3,0.3-0.5c0,0,0,0,0,0c0.5-0.8,0.8-1.7,1-2.7c0,0,0,0,0,0c-0.1,0.3-0.1,0.5-0.2,0.8c0,0,0,0,0,0
		c-1,3.4-4,5.8-7.6,6.2L265,451.1h32.4L463,558.6v7.3c0,0,0,0,0,0c0,0.1,0,0.2,0,0.4c0-0.1,0-0.3,0-0.4v-22.8l0,0l-140.3-91.9H463z"
		/>
	<path class="st0" d="M180.5,433.5H-49v17.7H91.3L-49,543.1v22.8c0,4,2.7,7.4,6.4,8.5c-3.3-0.9-5.7-3.8-6.2-7.3l178.7-116v0h32.4
		L-28,574.7h27.3l163.5-107.1v107.1h17.7V433.5z"/>
	<polygon class="st1" points="-48.9,407 -48.9,407 -49,407 -49,433.5 180.5,433.5 180.5,574.7 233.5,574.7 233.5,433.5 463,433.5 
		463,407 462.9,407 462.9,407 	"/>
	<path class="st1" d="M129.9,451.1L129.9,451.1l-178.7,116c0.5,3.5,2.9,6.3,6.2,7.3c0,0,0,0,0,0c0.2,0.1,0.5,0.1,0.7,0.2
		c0.1,0,0.2,0,0.4,0.1c0.1,0,0.3,0,0.4,0.1c0.3,0,0.6,0,0.9,0h0H-28l190.4-123.6H129.9z"/>
	<path class="st1" d="M463,565.9v-7.3L297.4,451.1H265l190.1,123.4c3.6-0.4,6.6-2.8,7.6-6.2c0,0,0,0,0,0c0.1-0.2,0.1-0.5,0.2-0.8
		c0,0,0,0,0,0c0-0.1,0-0.1,0-0.2c0-0.1,0-0.1,0-0.2c0-0.2,0.1-0.3,0.1-0.5c0,0,0,0,0,0c0-0.2,0-0.3,0-0.5
		C463,566.2,463,566,463,565.9C463,565.9,463,565.9,463,565.9z"/>
	<polygon points="-48.9,397 -48.9,407 -48.9,407 462.9,407 462.9,407 462.9,397 291.6,397 122.4,397 	"/>
</g>
</svg>
