<?xml version="1.0" encoding="utf-8"?>
<!-- Generator: Adobe Illustrator 19.0.0, SVG Export Plug-In . SVG Version: 6.00 Build 0)  -->
<svg version="1.1" id="Layer_6" xmlns="http://www.w3.org/2000/svg" xmlns:xlink="http://www.w3.org/1999/xlink" x="0px" y="0px"
	 viewBox="-49 229.3 512 345.5" style="enable-background:new -49 229.3 512 345.5;" xml:space="preserve">
<style type="text/css">
	.st0{fill:#F5F5F5;}
	.st1{fill:#FF4B55;}
	.st2{fill:#41479B;}
</style>
<g>
	<path class="st0" d="M113.1,378.8c3.4-1.7,5.3-5.3,4.8-9.1l-3.9-29.3l22.2,6.5c4.9,1.4,10-1.6,11.1-6.6l2.1-9.6l20.8,24.4
		c2.9,3.4,8.4,0.8,7.6-3.6l-8.9-51.7l13.6,3.7c4,1.1,8.2-0.7,10.1-4.4l14.3-26.9v0l0,0l0,0v0l14.3,26.9c1.9,3.6,6.1,5.4,10.1,4.4
		l13.6-3.7l-8.9,51.7c-0.8,4.4,4.7,7,7.6,3.6l20.8-24.4l2.1,9.6c1.1,5,6.2,8,11.1,6.6l22.2-6.5l-3.9,29.3c-0.5,3.7,1.4,7.4,4.8,9.1
		l12,6L291.6,397h56.6h0V229.3h105.9c4.9,0,8.8,4,8.8,8.8V397h0V238.1c0-4.9-4-8.8-8.8-8.8H-40.2c-4.3,0-7.9,3.1-8.7,7.1
		c0.8-4,4.4-7.1,8.7-7.1H65.8V397h0h56.6l-21.3-12.2L113.1,378.8z"/>
	<path class="st1" d="M-40.2,229.3c-4.3,0-7.9,3.1-8.7,7.1c-0.1,0.3-0.1,0.5-0.1,0.8c0,0.3,0,0.6,0,0.9V397H65.8V229.3H-40.2z"/>
	<path class="st1" d="M454.2,229.3H348.2V397H463V238.1C463,233.2,459,229.3,454.2,229.3z"/>
	<path class="st1" d="M312.9,384.8l-12-6c-3.4-1.7-5.3-5.3-4.8-9.1l3.9-29.3l-22.2,6.5c-4.9,1.4-10-1.6-11.1-6.6l-2.1-9.6
		l-20.8,24.4c-2.9,3.4-8.4,0.8-7.6-3.6l8.9-51.7l-13.6,3.7c-4,1.1-8.2-0.7-10.1-4.4L207,272.3v0l0,0l0,0v0l-14.3,26.9
		c-1.9,3.6-6.1,5.4-10.1,4.4l-13.6-3.7l8.9,51.7c0.8,4.4-4.7,7-7.6,3.6l-20.8-24.4l-2.1,9.6c-1.1,5-6.2,8-11.1,6.6l-22.2-6.5
		l3.9,29.3c0.5,3.7-1.4,7.4-4.8,9.1l-12,6l21.3,12.2l0,0h169.3l0,0L312.9,384.8z"/>
	<path class="st2" d="M121.7,574.7v-80.1l0,0v-17v-21.1v-23V407H-48.9v0H-49v0v26.5v17.7h0v91.9l0,0v22.8c0,0.3,0,0.6,0,0.9
		c0,0,0,0,0,0c0,0.3,0.1,0.6,0.1,0.9c0,0,0,0,0,0c0.6,2.8,2.4,5,4.9,6.2c0.1,0,0.2,0.1,0.2,0.1c0.2,0.1,0.5,0.2,0.8,0.3
		c0.9,0.3,1.8,0.4,2.7,0.4H-28h27.3l0,0h163.5v0H121.7z"/>
	<polygon class="st2" points="292.3,574.7 292.3,574.7 251.1,574.7 251.1,574.7 414.7,574.7 414.6,574.7 	"/>
	<path class="st0" d="M463,565.9L463,565.9C463,565.9,463,565.9,463,565.9c0,0.2,0,0.3,0,0.4C463,566.2,463,566,463,565.9l0-22.8
		l0,0L463,565.9C463,565.9,463,565.9,463,565.9z"/>
	<path class="st0" d="M462.8,567.6C462.8,567.6,462.8,567.6,462.8,567.6C462.8,567.6,462.8,567.6,462.8,567.6
		C462.8,567.6,462.8,567.6,462.8,567.6C462.8,567.6,462.8,567.6,462.8,567.6z"/>
	<path class="st0" d="M462.6,568.3C462.6,568.3,462.6,568.3,462.6,568.3C462.6,568.4,462.6,568.4,462.6,568.3c0,0.1,0,0.1,0,0.1
		c0.1-0.2,0.1-0.5,0.2-0.7c0,0,0,0.1,0,0.1C462.7,568,462.7,568.2,462.6,568.3z"/>
	<path class="st0" d="M462.3,569.3c0.1-0.2,0.2-0.5,0.3-0.7C462.5,568.8,462.4,569.1,462.3,569.3z"/>
	<path class="st0" d="M454.2,574.7h-39.5l0,0L454.2,574.7L454.2,574.7C454.2,574.7,454.2,574.7,454.2,574.7c0.3,0,0.5,0,0.8,0
		c0.1,0,0.2,0,0.3,0c0.2,0,0.3,0,0.5-0.1c0.1,0,0.2,0,0.3-0.1c0.1,0,0.3-0.1,0.4-0.1c0.1,0,0.2-0.1,0.4-0.1c0.1,0,0.2-0.1,0.4-0.1
		c0.1,0,0.2-0.1,0.4-0.1c0.1,0,0.2-0.1,0.3-0.1c0.1-0.1,0.2-0.1,0.4-0.2c0.1,0,0.2-0.1,0.3-0.1c0.1-0.1,0.2-0.1,0.4-0.2
		c0.1-0.1,0.2-0.1,0.3-0.2c0.1-0.1,0.2-0.2,0.4-0.2c0.1-0.1,0.1-0.1,0.2-0.2c0.1-0.1,0.2-0.2,0.3-0.3c0.1-0.1,0.1-0.1,0.2-0.2
		c0.1-0.1,0.2-0.2,0.3-0.3c0.1-0.1,0.1-0.1,0.2-0.2c0.1-0.1,0.2-0.2,0.3-0.4c0,0,0.1-0.1,0.1-0.1c0.1-0.1,0.2-0.3,0.3-0.4
		c0,0,0-0.1,0.1-0.1c0.1-0.2,0.2-0.3,0.3-0.5c0,0,0,0,0,0c0.2-0.3,0.3-0.6,0.5-0.9C460.9,572.5,457.8,574.7,454.2,574.7z"/>
	<path class="st0" d="M-48.8,567.6c-0.1-0.3-0.1-0.6-0.1-0.9C-48.9,567.1-48.9,567.4-48.8,567.6z"/>
	<rect x="-49" y="433.5" class="st0" width="0" height="17.7"/>
	<polygon class="st0" points="-28,574.7 -28,574.7 -0.7,574.7 -0.6,574.7 	"/>
	<path class="st0" d="M-43.7,574c-0.1,0-0.2-0.1-0.2-0.1c-2.5-1.2-4.4-3.4-4.9-6.2c0.7,3.2,3.1,5.8,6.3,6.7c-0.1,0-0.2-0.1-0.3-0.1
		C-43.2,574.2-43.4,574.1-43.7,574z"/>
	<path class="st0" d="M-49,543.1L-49,543.1l0,22.8c0,0.3,0,0.6,0,0.9c0-0.3,0-0.6,0-0.9V543.1z"/>
	<rect x="-49" y="407" class="st1" width="0" height="26.5"/>
	<rect x="180.5" y="574.7" class="st1" width="53" height="0"/>
	<rect x="121.7" y="407" class="st1" width="0" height="26.5"/>
	<path class="st1" d="M-43.9,573.9c0.1,0,0.2,0.1,0.2,0.1C-43.7,573.9-43.8,573.9-43.9,573.9z"/>
	<path class="st1" d="M-40.2,574.7c-1,0-1.9-0.2-2.7-0.4c0.1,0,0.2,0.1,0.3,0.1c0,0,0,0,0,0c0.2,0.1,0.5,0.1,0.7,0.2
		c0.1,0,0.2,0,0.4,0.1c0.1,0,0.3,0,0.4,0.1C-40.7,574.7-40.5,574.7-40.2,574.7L-40.2,574.7l12.2,0l0,0H-40.2z"/>
	<rect x="121.7" y="456.5" class="st1" width="0" height="21.1"/>
	<polygon class="st0" points="292.3,574.7 292.3,574.7 292.3,574.7 292.3,407 121.7,407 121.7,433.5 121.7,433.5 121.7,456.5 
		121.7,456.5 121.7,477.6 121.7,477.6 121.7,494.6 121.7,494.6 121.7,574.7 162.9,574.7 162.9,574.7 180.5,574.7 180.5,574.7 
		233.5,574.7 233.5,574.7 251.1,574.7 251.1,574.7 	"/>
	<path class="st1" d="M462.9,407H292.3v167.7h0h122.3h39.5c3.6,0,6.8-2.2,8.1-5.4c0,0,0,0,0-0.1c0.1-0.2,0.2-0.5,0.3-0.7
		c0,0,0-0.1,0-0.1c0,0,0,0,0-0.1c0,0,0,0,0,0c0,0,0,0,0,0c0-0.1,0.1-0.3,0.1-0.5c0,0,0-0.1,0-0.1c0-0.1,0-0.1,0-0.2c0,0,0,0,0,0
		c0,0,0,0,0,0c0,0,0,0,0,0c0-0.1,0-0.1,0-0.2c0-0.1,0-0.1,0-0.2c0-0.1,0-0.3,0.1-0.4c0,0,0,0,0,0c0,0,0,0,0,0c0,0,0,0,0,0
		c0-0.2,0-0.3,0-0.5c0-0.1,0-0.2,0-0.4c0,0,0,0,0,0v0c0,0,0,0,0,0v-22.8V407L462.9,407L462.9,407z"/>
	<polygon points="-48.9,397 -48.9,407 -48.9,407 121.7,407 121.7,407 292.3,407 462.9,407 462.9,407 462.9,397 291.6,397 122.4,397 
			"/>
</g>
</svg>
